#!OML:ASF E:\acrobat2\Project_11_07_03\Capture day 1\Session 1\Acrobat.ASF
:FULLY-SPECIFIED
:DEGREES
469
root 10.8736 5.49534 11.5262 -88.8542 2.05984 177.954
lowerback -8.27707 -3.10123 1.20303
upperback -2.96312 -4.57585 6.02458
thorax 1.96415 -2.38152 5.12357
lowerneck 0.137684 -17.7721 -4.95612
upperneck -21.6663 -21.8921 17.5966
head -3.90681 -10.9392 6.42181
rclavicle -3.97569e-015 -4.07509e-014
rhumerus 32.2001 -26.0624 -23.1894
rradius 111.88
rwrist -9.66508
rhand -17.6385 -41.6323
rfingers 7.12502
rthumb 8.6192 -71.4364
lclavicle -3.97569e-015 -4.07509e-014
lhumerus 9.23653 37.5048 7.7926
lradius 111.691
lwrist 25.7558
lhand -8.11048 -28.1994
lfingers 7.12502
lthumb 17.8025 1.0057
rfemur 13.2397 30.1783 -6.09339
rtibia 13.6594
rfoot -21.9392 -7.42479
rtoes 47.7701
lfemur -11.6856 -26.4498 4.60074
ltibia 25.2935
lfoot 26.3596 6.52306
ltoes 57.3657
470
root 10.8359 5.59933 11.5693 -88.4756 2.19515 178.964
lowerback -8.20862 -3.06879 1.18121
upperback -2.82469 -4.13777 6.06108
thorax 2.03413 -1.96533 5.22867
lowerneck 0.0544867 -17.8113 -4.83511
upperneck -22.6785 -21.7227 18.3483
head -4.13142 -10.8827 6.68569
rclavicle 1.66979e-014 -3.57812e-015
rhumerus 32.981 -26.0964 -23.8695
rradius 111.451
rwrist -8.92604
rhand -16.6476 -41.6717
rfingers 7.12502
rthumb 9.57539 -71.4341
lclavicle 1.66979e-014 -3.57812e-015
lhumerus 9.91725 37.8112 8.35362
lradius 111.162
lwrist 25.4131
lhand -7.39076 -27.896
lfingers 7.12502
lthumb 18.495 1.24475
rfemur 11.7217 29.1217 -7.99384
rtibia 11.5299
rfoot -19.1285 -12.7313
rtoes 54.6922
lfemur -12.2355 -25.184 4.85752
ltibia 24.4543
lfoot 27.8984 10.9795
ltoes 55.2634
471
root 10.7985 5.70378 11.5915 -88.4093 2.51298 179.941
lowerback -7.71716 -2.78467 0.899752
upperback -2.63853 -3.73131 5.9939
thorax 1.93413 -1.76848 5.37658
lowerneck 0.0363879 -17.8288 -4.73309
upperneck -23.7172 -21.4991 19.2214
head -4.36283 -10.8137 7.00034
rclavicle -7.15625e-015 -2.59414e-014
rhumerus 33.6184 -26.222 -24.5205
rradius 111.144
rwrist -8.47547
rhand -15.8683 -41.6087
rfingers 7.12502
rthumb 10.3272 -71.3352
lclavicle -7.15625e-015 -2.59414e-014
lhumerus 10.731 38.2406 8.96955
lradius 110.679
lwrist 25.1181
lhand -6.57967 -27.7898
lfingers 7.12502
lthumb 19.275 1.27502
rfemur 10.1597 28.1666 -9.81279
rtibia 10.1056
rfoot -15.1819 -19.3462
rtoes 59.4984
lfemur -11.9539 -23.8187 4.63349
ltibia 23.5463
lfoot 29.0069 15.5929
ltoes 53.7238
472
root 10.7627 5.8095 11.6052 -88.638 2.97266 180.788
lowerback -6.87475 -2.52989 0.454718
upperback -2.38334 -3.35762 5.82325
thorax 1.71303 -1.59461 5.51228
lowerneck -0.00942646 -17.8344 -4.57915
upperneck -24.6669 -21.2475 20.1247
head -4.56962 -10.7421 7.31428
rclavicle -2.38542e-015 -7.11649e-014
rhumerus 34.0568 -26.4083 -25.1709
rradius 110.978
rwrist -8.26692
rhand -15.3178 -41.4064
rfingers 7.12502
rthumb 10.8582 -71.1057
lclavicle -2.38542e-015 -7.11649e-014
lhumerus 11.7169 38.7517 9.64541
lradius 110.234
lwrist 24.7612
lhand -5.77544 -27.8859
lfingers 7.12502
lthumb 20.0482 1.0998
rfemur 8.56288 27.6124 -11.3548
rtibia 9.61543
rfoot -9.82633 -25.0747
rtoes 61.7823
lfemur -11.0263 -22.8779 4.07916
ltibia 22.5283
lfoot 29.6126 19.1338
ltoes 52.7731
473
root 10.7292 5.91453 11.6205 -89.099 3.46166 181.417
lowerback -5.80933 -2.32512 -0.0146327
upperback -2.07448 -3.05989 5.56802
thorax 1.42209 -1.46201 5.56702
lowerneck -0.131253 -17.8383 -4.31538
upperneck -25.4601 -20.9916 21.018
head -4.73325 -10.6801 7.59788
rclavicle -2.54444e-014 -2.87244e-014
rhumerus 34.2844 -26.6347 -25.8434
rradius 110.959
rwrist -8.27838
rhand -14.9894 -41.0848
rfingers 7.12502
rthumb 11.1749 -70.7672
lclavicle -2.54444e-014 -2.87244e-014
lhumerus 12.8749 39.292 10.3442
lradius 109.809
lwrist 24.302
lhand -5.06975 -28.1352
lfingers 7.12502
lthumb 20.7264 0.777995
rfemur 6.95643 26.9378 -12.5797
rtibia 9.97338
rfoot -3.14454 -29.2541
rtoes 62.2063
lfemur -9.71141 -22.6412 3.40993
ltibia 21.418
lfoot 30.0793 21.2606
ltoes 52.0599
474
root 10.6983 6.01439 11.6386 -89.7005 3.83878 181.865
lowerback -4.66294 -2.16101 -0.348198
upperback -1.73435 -2.83241 5.27754
thorax 1.11269 -1.36381 5.4995
lowerneck -0.315454 -17.8373 -3.93028
upperneck -26.0766 -20.7418 21.8389
head -4.8585 -10.6292 7.83054
rclavicle 4.21423e-014 -2.11706e-014
rhumerus 34.3372 -26.8681 -26.5468
rradius 111.077
rwrist -8.48826
rhand -14.8482 -40.7299
rfingers 7.12502
rthumb 11.3111 -70.4048
lclavicle 4.21423e-014 -2.11706e-014
lhumerus 14.1304 39.7982 11.0043
lradius 109.402
lwrist 23.7663
lhand -4.52177 -28.4164
lfingers 7.12502
lthumb 21.2528 0.438464
rfemur 5.40036 26.1573 -13.375
rtibia 10.912
rfoot 4.03299 -31.5306
rtoes 61.295
lfemur -8.28074 -22.7233 2.79971
ltibia 20.304
lfoot 31.3621 21.4885
ltoes 50.9846
475
root 10.6685 6.10574 11.6579 -90.3852 4.02123 182.186
lowerback -3.52762 -2.03274 -0.448845
upperback -1.38084 -2.66502 4.99972
thorax 0.817037 -1.29287 5.30536
lowerneck -0.529862 -17.825 -3.45375
upperneck -26.52 -20.5087 22.503
head -4.95808 -10.5853 7.99342
rclavicle -2.3059e-014 2.28602e-015
rhumerus 34.2775 -27.0655 -27.263
rradius 111.301
rwrist -8.84055
rhand -14.8618 -40.4448
rfingers 7.12502
rthumb 11.2981 -70.1205
lclavicle -2.3059e-014 2.28602e-015
lhumerus 15.3695 40.2175 11.5624
lradius 109.013
lwrist 23.2
lhand -4.14729 -28.6061
lfingers 7.12502
lthumb 21.6125 0.20777
rfemur 4.08032 25.9879 -13.6378
rtibia 11.9964
rfoot 10.1728 -31.9858
rtoes 59.4663
lfemur -6.80605 -22.8934 2.33256
ltibia 19.2459
lfoot 33.1153 20.4088
ltoes 49.7526
476
root 10.6391 6.18583 11.6785 -91.0901 4.02418 182.447
lowerback -2.48225 -1.93407 -0.334135
upperback -1.03744 -2.53995 4.7652
thorax 0.557474 -1.23956 5.02785
lowerneck -0.712616 -17.7973 -2.97095
upperneck -26.8283 -20.2946 23.0103
head -5.04237 -10.5446 8.10395
rclavicle 3.65764e-014 -5.92378e-014
rhumerus 34.1752 -27.1863 -27.9406
rradius 111.577
rwrist -9.24687
rhand -14.9996 -40.2754
rfingers 7.12502
rthumb 11.1651 -69.9583
lclavicle 3.65764e-014 -5.92378e-014
lhumerus 16.4739 40.5177 11.9624
lradius 108.637
lwrist 22.6504
lhand -3.9071 -28.6683
lfingers 7.12502
lthumb 21.8432 0.118896
rfemur 3.06363 26.1063 -13.5068
rtibia 12.8843
rfoot 15.0781 -31.4692
rtoes 56.981
lfemur -5.36481 -23.0015 2.00818
ltibia 18.3197
lfoot 34.7941 18.8044
ltoes 48.5375
477
root 10.6101 6.25303 11.6977 -91.7547 3.92102 182.737
lowerback -1.58196 -1.84772 -0.0944613
upperback -0.727136 -2.42665 4.58708
thorax 0.343974 -1.18849 4.733
lowerneck -0.786942 -17.7445 -2.6141
upperneck -27.041 -20.0884 23.406
head -5.11398 -10.4985 8.20085
rclavicle 1.59028e-015 4.72114e-014
rhumerus 34.0872 -27.205 -28.5335
rradius 111.839
rwrist -9.60398
rhand -15.2062 -40.2051
rfingers 7.12502
rthumb 10.9658 -69.8987
lclavicle 1.59028e-015 4.72114e-014
lhumerus 17.3625 40.6901 12.1813
lradius 108.274
lwrist 22.1665
lhand -3.73002 -28.627
lfingers 7.12502
lthumb 22.0132 0.140292
rfemur 2.32769 26.3271 -13.1637
rtibia 13.368
rfoot 18.8964 -30.4598
rtoes 54.1382
lfemur -4.01817 -22.9708 1.76218
ltibia 17.5856
lfoot 36.1468 17.2386
ltoes 47.2982
478
root 10.5828 6.30747 11.7184 -92.3526 3.78289 183.071
lowerback -0.838476 -1.76941 0.183955
upperback -0.463848 -2.31791 4.45817
thorax 0.172029 -1.13683 4.46239
lowerneck -0.747379 -17.6746 -2.40359
upperneck -27.1796 -19.9032 23.674
head -5.17803 -10.4496 8.28267
rclavicle -2.22639e-014 1.12313e-014
rhumerus 34.0354 -27.1181 -29.0331
rradius 112.042
rwrist -9.81206
rhand -15.4053 -40.1832
rfingers 7.12502
rthumb 10.7738 -69.8869
lclavicle -2.22639e-014 1.12313e-014
lhumerus 18.0273 40.7445 12.231
lradius 107.926
lwrist 21.7797
lhand -3.56112 -28.5211
lfingers 7.12502
lthumb 22.1754 0.226993
rfemur 1.87782 26.575 -12.7191
rtibia 13.3655
rfoot 21.6549 -29.2389
rtoes 51.4358
lfemur -2.82823 -22.8171 1.54539
ltibia 17.095
lfoot 37.1432 15.8738
ltoes 45.8991
479
root 10.5589 6.34978 11.742 -92.8491 3.64951 183.474
lowerback -0.263598 -1.68589 0.446919
upperback -0.257295 -2.19778 4.36448
thorax 0.0388204 -1.07736 4.23203
lowerneck -0.605449 -17.6024 -2.37825
upperneck -27.2433 -19.7549 23.8879
head -5.21493 -10.4076 8.37202
rclavicle -4.45278e-014 -1.55052e-014
rhumerus 34.0001 -26.9302 -29.4571
rradius 112.168
rwrist -9.789
rhand -15.5456 -40.1444
rfingers 7.12502
rthumb 10.6385 -69.8551
lclavicle -4.45278e-014 -1.55052e-014
lhumerus 18.5112 40.6963 12.1543
lradius 107.6
lwrist 21.4743
lhand -3.37748 -28.3875
lfingers 7.12502
lthumb 22.3516 0.339584
rfemur 1.65867 26.7552 -12.2492
rtibia 12.8579
rfoot 23.345 -27.9503
rtoes 49.2323
lfemur -1.83254 -22.5329 1.34139
ltibia 16.8591
lfoot 37.7972 14.6929
ltoes 44.2197
